{"glyphs":{"0":{"ha":1173,"x_min":85,"x_max":1088,"o":"m 286 1001 l 888 1001 l 888 800 l 286 800 l 286 1001 m 85 800 l 286 800 l 286 198 l 85 198 l 85 800 m 888 800 l 1088 800 l 1088 198 l 888 198 l 888 800 m 286 198 l 888 198 l 888 0 l 286 0 l 286 198 z "},"1":{"ha":571,"x_min":85,"x_max":486,"o":"m 286 1001 l 486 1001 l 486 0 l 286 0 l 286 600 l 85 600 l 85 800 l 286 800 l 286 1001 z "},"2":{"ha":1173,"x_min":85,"x_max":1088,"o":"m 85 1001 l 888 1001 l 888 800 l 85 800 l 85 1001 m 888 800 l 1088 800 l 1088 600 l 888 600 l 888 800 m 286 600 l 888 600 l 888 399 l 286 399 l 286 600 m 85 399 l 286 399 l 286 198 l 1088 198 l 1088 0 l 85 0 l 85 399 z "},"3":{"ha":1173,"x_min":85,"x_max":1088,"o":"m 286 1001 l 888 1001 l 888 800 l 286 800 l 286 1001 m 85 800 l 286 800 l 286 600 l 85 600 l 85 800 m 888 800 l 1088 800 l 1088 600 l 888 600 l 888 800 m 486 600 l 888 600 l 888 399 l 486 399 l 486 600 m 85 399 l 286 399 l 286 198 l 85 198 l 85 399 m 888 399 l 1088 399 l 1088 198 l 888 198 l 888 399 m 286 198 l 888 198 l 888 0 l 286 0 l 286 198 z "},"4":{"ha":1173,"x_min":85,"x_max":1088,"o":"m 85 1001 l 286 1001 l 286 600 l 888 600 l 888 1001 l 1088 1001 l 1088 0 l 888 0 l 888 399 l 85 399 l 85 1001 z "},"5":{"ha":1173,"x_min":85,"x_max":1088,"o":"m 85 1001 l 1088 1001 l 1088 800 l 286 800 l 286 600 l 888 600 l 888 399 l 85 399 l 85 1001 m 888 399 l 1088 399 l 1088 198 l 888 198 l 888 399 m 85 198 l 888 198 l 888 0 l 85 0 l 85 198 z "},"6":{"ha":1173,"x_min":85,"x_max":1088,"o":"m 286 1001 l 1088 1001 l 1088 800 l 286 800 l 286 1001 m 85 800 l 286 800 l 286 600 l 888 600 l 888 399 l 286 399 l 286 198 l 85 198 l 85 800 m 888 399 l 1088 399 l 1088 198 l 888 198 l 888 399 m 286 198 l 888 198 l 888 0 l 286 0 l 286 198 z "},"7":{"ha":1173,"x_min":85,"x_max":1088,"o":"m 85 1001 l 1088 1001 l 1088 600 l 888 600 l 888 800 l 85 800 l 85 1001 m 687 600 l 888 600 l 888 399 l 687 399 l 687 600 m 486 399 l 687 399 l 687 0 l 486 0 l 486 399 z "},"8":{"ha":1173,"x_min":85,"x_max":1088,"o":"m 286 1001 l 888 1001 l 888 800 l 286 800 l 286 1001 m 85 800 l 286 800 l 286 600 l 85 600 l 85 800 m 888 800 l 1088 800 l 1088 600 l 888 600 l 888 800 m 286 600 l 888 600 l 888 399 l 286 399 l 286 600 m 85 399 l 286 399 l 286 198 l 85 198 l 85 399 m 888 399 l 1088 399 l 1088 198 l 888 198 l 888 399 m 286 198 l 888 198 l 888 0 l 286 0 l 286 198 z "},"9":{"ha":1173,"x_min":85,"x_max":1088,"o":"m 286 1001 l 888 1001 l 888 800 l 286 800 l 286 1001 m 85 800 l 286 800 l 286 600 l 85 600 l 85 800 m 888 800 l 1088 800 l 1088 198 l 888 198 l 888 399 l 286 399 l 286 600 l 888 600 l 888 800 m 85 198 l 888 198 l 888 0 l 85 0 l 85 198 z "},"\u0000":{"ha":0,"x_min":0,"x_max":0,"o":""},"\u001d":{"ha":0,"x_min":0,"x_max":0,"o":""}," ":{"ha":475,"x_min":0,"x_max":0,"o":""}," ":{"ha":475,"x_min":0,"x_max":0,"o":""},"!":{"ha":370,"x_min":85,"x_max":286,"o":"m 85 1001 l 286 1001 l 286 399 l 85 399 l 85 1001 m 85 198 l 286 198 l 286 0 l 85 0 l 85 198 z "},"\"":{"ha":671,"x_min":85,"x_max":587,"o":"m 85 1202 l 286 1202 l 286 1001 l 185 1001 l 185 800 l 85 800 l 85 1202 m 386 1202 l 587 1202 l 587 1001 l 486 1001 l 486 800 l 386 800 l 386 1202 z "},"#":{"ha":1173,"x_min":85,"x_max":1088,"o":"m 286 1001 l 486 1001 l 486 800 l 687 800 l 687 1001 l 888 1001 l 888 779 l 1088 779 l 1088 600 l 888 600 l 888 399 l 1088 399 l 1088 198 l 888 198 l 888 0 l 687 0 l 687 198 l 486 198 l 486 0 l 286 0 l 286 198 l 85 198 l 85 399 l 286 399 l 286 600 l 85 600 l 85 800 l 286 800 l 286 1001 m 486 600 l 486 399 l 687 399 l 687 600 l 486 600 z "},"$":{"ha":1173,"x_min":85,"x_max":1086,"o":"m 486 1204 l 687 1204 l 687 1004 l 1086 1004 l 1086 803 l 286 803 l 286 1004 l 486 1004 l 486 1204 m 85 803 l 286 803 l 286 602 l 85 602 l 85 803 m 286 602 l 885 602 l 885 401 l 286 401 l 286 602 m 885 401 l 1086 401 l 1086 201 l 885 201 l 885 401 m 85 201 l 885 201 l 885 0 l 687 0 l 687 -198 l 486 -198 l 486 0 l 85 0 l 85 201 z "},"%":{"ha":1173,"x_min":85,"x_max":1088,"o":"m 185 1001 l 386 1001 l 386 901 l 185 901 l 185 1001 m 888 1001 l 1088 1001 l 1088 800 l 888 800 l 888 1001 m 85 901 l 185 901 l 185 700 l 85 700 l 85 901 m 386 901 l 486 901 l 486 700 l 386 700 l 386 901 m 687 800 l 888 800 l 888 600 l 687 600 l 687 800 m 185 700 l 386 700 l 386 600 l 185 600 l 185 700 m 486 600 l 687 600 l 687 399 l 486 399 l 486 600 m 286 399 l 486 399 l 486 198 l 286 198 l 286 399 m 787 399 l 988 399 l 988 298 l 787 298 l 787 399 m 687 298 l 787 298 l 787 98 l 687 98 l 687 298 m 988 298 l 1088 298 l 1088 98 l 988 98 l 988 298 m 85 198 l 286 198 l 286 0 l 85 0 l 85 198 m 787 98 l 988 98 l 988 0 l 787 0 l 787 98 z "},"&":{"ha":1374,"x_min":85,"x_max":1289,"o":"m 286 1001 l 888 1001 l 888 800 l 286 800 l 286 1001 m 85 800 l 286 800 l 286 600 l 85 600 l 85 800 m 286 600 l 888 600 l 888 399 l 286 399 l 286 600 m 85 399 l 286 399 l 286 198 l 85 198 l 85 399 m 888 399 l 1289 399 l 1289 198 l 1088 198 l 1088 0 l 286 0 l 286 198 l 888 198 l 888 399 z "},"'":{"ha":370,"x_min":85,"x_max":286,"o":"m 85 1202 l 286 1202 l 286 1001 l 185 1001 l 185 800 l 85 800 l 85 1202 z "},"(":{"ha":571,"x_min":85,"x_max":486,"o":"m 286 1001 l 486 1001 l 486 800 l 286 800 l 286 1001 m 85 800 l 286 800 l 286 198 l 85 198 l 85 800 m 286 198 l 486 198 l 486 0 l 286 0 l 286 198 z "},")":{"ha":571,"x_min":85,"x_max":486,"o":"m 85 1001 l 286 1001 l 286 800 l 85 800 l 85 1001 m 286 800 l 486 800 l 486 198 l 286 198 l 286 800 m 85 198 l 286 198 l 286 0 l 85 0 l 85 198 z "},"*":{"ha":671,"x_min":85,"x_max":587,"o":"m 286 1001 l 386 1001 l 386 800 l 486 800 l 486 700 l 386 700 l 386 499 l 286 499 l 286 700 l 185 700 l 185 800 l 286 800 l 286 1001 m 85 901 l 185 901 l 185 800 l 85 800 l 85 901 m 486 901 l 587 901 l 587 800 l 486 800 l 486 901 m 85 700 l 185 700 l 185 600 l 85 600 l 85 700 m 486 700 l 587 700 l 587 600 l 486 600 l 486 700 z "},"+":{"ha":772,"x_min":85,"x_max":687,"o":"m 286 800 l 486 800 l 486 600 l 687 600 l 687 399 l 486 399 l 486 198 l 286 198 l 286 399 l 85 399 l 85 600 l 286 600 l 286 800 z "},",":{"ha":370,"x_min":85,"x_max":286,"o":"m 85 201 l 286 201 l 286 -100 l 185 -100 l 185 0 l 85 0 l 85 201 z "},"-":{"ha":772,"x_min":85,"x_max":687,"o":"m 85 600 l 687 600 l 687 399 l 85 399 l 85 600 z "},"­":{"ha":772,"x_min":85,"x_max":687,"o":"m 85 600 l 687 600 l 687 399 l 85 399 l 85 600 z "},".":{"ha":370,"x_min":85,"x_max":286,"o":"m 85 198 l 286 198 l 286 0 l 85 0 l 85 198 z "},"/":{"ha":1173,"x_min":85,"x_max":1088,"o":"m 888 1001 l 1088 1001 l 1088 800 l 888 800 l 888 1001 m 687 800 l 888 800 l 888 600 l 687 600 l 687 800 m 486 600 l 687 600 l 687 399 l 486 399 l 486 600 m 286 399 l 486 399 l 486 198 l 286 198 l 286 399 m 85 198 l 286 198 l 286 0 l 85 0 l 85 198 z "},":":{"ha":370,"x_min":85,"x_max":286,"o":"m 85 800 l 286 800 l 286 600 l 85 600 l 85 800 m 85 198 l 286 198 l 286 0 l 85 0 l 85 198 z "},";":{"ha":370,"x_min":85,"x_max":286,"o":"m 85 803 l 286 803 l 286 602 l 85 602 l 85 803 m 85 201 l 286 201 l 286 -100 l 185 -100 l 185 0 l 85 0 l 85 201 z "},";":{"ha":370,"x_min":85,"x_max":286,"o":"m 85 803 l 286 803 l 286 602 l 85 602 l 85 803 m 85 201 l 286 201 l 286 -100 l 185 -100 l 185 0 l 85 0 l 85 201 z "},"<":{"ha":772,"x_min":85,"x_max":687,"o":"m 486 1001 l 687 1001 l 687 800 l 486 800 l 486 1001 m 286 800 l 486 800 l 486 600 l 286 600 l 286 800 m 85 600 l 286 600 l 286 399 l 85 399 l 85 600 m 286 399 l 486 399 l 486 198 l 286 198 l 286 399 m 486 198 l 687 198 l 687 0 l 486 0 l 486 198 z "},"=":{"ha":972,"x_min":85,"x_max":888,"o":"m 85 800 l 888 800 l 888 600 l 85 600 l 85 800 m 85 399 l 888 399 l 888 198 l 85 198 l 85 399 z "},">":{"ha":772,"x_min":85,"x_max":687,"o":"m 85 1001 l 286 1001 l 286 800 l 85 800 l 85 1001 m 286 800 l 486 800 l 486 600 l 286 600 l 286 800 m 486 600 l 687 600 l 687 399 l 486 399 l 486 600 m 286 399 l 486 399 l 486 198 l 286 198 l 286 399 m 85 198 l 286 198 l 286 0 l 85 0 l 85 198 z "},"?":{"ha":1173,"x_min":85,"x_max":1088,"o":"m 286 1001 l 888 1001 l 888 800 l 286 800 l 286 1001 m 85 800 l 286 800 l 286 600 l 85 600 l 85 800 m 888 800 l 1088 800 l 1088 600 l 888 600 l 888 800 m 486 600 l 888 600 l 888 399 l 486 399 l 486 600 m 486 198 l 687 198 l 687 0 l 486 0 l 486 198 z "},"@":{"ha":1173,"x_min":85,"x_max":1088,"o":"m 286 1001 l 888 1001 l 888 800 l 286 800 l 286 1001 m 85 800 l 286 800 l 286 0 l 85 0 l 85 800 m 888 800 l 1088 800 l 1088 0 l 486 0 l 486 600 l 888 600 l 888 800 m 687 399 l 687 198 l 888 198 l 888 399 l 687 399 z "},"A":{"ha":1173,"x_min":85,"x_max":1088,"o":"m 286 1001 l 888 1001 l 888 800 l 286 800 l 286 1001 m 85 800 l 286 800 l 286 600 l 888 600 l 888 800 l 1088 800 l 1088 0 l 888 0 l 888 399 l 286 399 l 286 0 l 85 0 l 85 800 z "},"B":{"ha":1173,"x_min":85,"x_max":1088,"o":"m 85 1001 l 888 1001 l 888 800 l 286 800 l 286 600 l 888 600 l 888 399 l 286 399 l 286 198 l 888 198 l 888 0 l 85 0 l 85 1001 m 888 800 l 1088 800 l 1088 600 l 888 600 l 888 800 m 888 399 l 1088 399 l 1088 198 l 888 198 l 888 399 z "},"C":{"ha":1173,"x_min":85,"x_max":1088,"o":"m 286 1001 l 888 1001 l 888 800 l 286 800 l 286 1001 m 85 800 l 286 800 l 286 198 l 85 198 l 85 800 m 888 800 l 1088 800 l 1088 600 l 888 600 l 888 800 m 888 399 l 1088 399 l 1088 198 l 888 198 l 888 399 m 286 198 l 888 198 l 888 0 l 286 0 l 286 198 z "},"D":{"ha":1173,"x_min":85,"x_max":1088,"o":"m 85 1001 l 888 1001 l 888 800 l 286 800 l 286 198 l 888 198 l 888 0 l 85 0 l 85 1001 m 888 800 l 1088 800 l 1088 198 l 888 198 l 888 800 z "},"E":{"ha":1173,"x_min":85,"x_max":1088,"o":"m 85 1001 l 1088 1001 l 1088 800 l 286 800 l 286 600 l 888 600 l 888 399 l 286 399 l 286 198 l 1088 198 l 1088 0 l 85 0 l 85 1001 z "},"F":{"ha":1173,"x_min":85,"x_max":1088,"o":"m 85 1001 l 1088 1001 l 1088 800 l 286 800 l 286 600 l 888 600 l 888 399 l 286 399 l 286 0 l 85 0 l 85 1001 z "},"G":{"ha":1173,"x_min":85,"x_max":1088,"o":"m 286 1001 l 1088 1001 l 1088 800 l 286 800 l 286 1001 m 85 800 l 286 800 l 286 198 l 85 198 l 85 800 m 486 600 l 1088 600 l 1088 198 l 888 198 l 888 399 l 486 399 l 486 600 m 286 198 l 888 198 l 888 0 l 286 0 l 286 198 z "},"H":{"ha":1173,"x_min":85,"x_max":1088,"o":"m 85 1001 l 286 1001 l 286 600 l 888 600 l 888 1001 l 1088 1001 l 1088 0 l 888 0 l 888 399 l 286 399 l 286 0 l 85 0 l 85 1001 z "},"I":{"ha":1173,"x_min":85,"x_max":1088,"o":"m 85 1001 l 1088 1001 l 1088 800 l 687 800 l 687 198 l 1088 198 l 1088 0 l 85 0 l 85 198 l 486 198 l 486 800 l 85 800 l 85 1001 z "},"J":{"ha":1173,"x_min":85,"x_max":1088,"o":"m 687 1001 l 1088 1001 l 1088 198 l 888 198 l 888 800 l 687 800 l 687 1001 m 85 600 l 286 600 l 286 198 l 85 198 l 85 600 m 286 198 l 888 198 l 888 0 l 286 0 l 286 198 z "},"K":{"ha":1173,"x_min":85,"x_max":1088,"o":"m 85 1001 l 286 1001 l 286 600 l 687 600 l 687 399 l 286 399 l 286 0 l 85 0 l 85 1001 m 888 1001 l 1088 1001 l 1088 800 l 888 800 l 888 1001 m 687 800 l 888 800 l 888 600 l 687 600 l 687 800 m 687 399 l 888 399 l 888 198 l 687 198 l 687 399 m 888 198 l 1088 198 l 1088 0 l 888 0 l 888 198 z "},"L":{"ha":1173,"x_min":85,"x_max":1088,"o":"m 85 1001 l 286 1001 l 286 198 l 1088 198 l 1088 0 l 85 0 l 85 1001 z "},"M":{"ha":1173,"x_min":85,"x_max":1088,"o":"m 85 1001 l 286 1001 l 286 800 l 486 800 l 486 600 l 286 600 l 286 0 l 85 0 l 85 1001 m 888 1001 l 1088 1001 l 1088 0 l 888 0 l 888 600 l 687 600 l 687 800 l 888 800 l 888 1001 m 486 600 l 687 600 l 687 399 l 486 399 l 486 600 z "},"N":{"ha":1173,"x_min":85,"x_max":1088,"o":"m 85 1001 l 286 1001 l 286 800 l 486 800 l 486 600 l 286 600 l 286 0 l 85 0 l 85 1001 m 888 1001 l 1088 1001 l 1088 0 l 888 0 l 888 198 l 687 198 l 687 399 l 888 399 l 888 1001 m 486 600 l 687 600 l 687 399 l 486 399 l 486 600 z "},"O":{"ha":1173,"x_min":85,"x_max":1088,"o":"m 286 1001 l 888 1001 l 888 800 l 286 800 l 286 1001 m 85 800 l 286 800 l 286 198 l 85 198 l 85 800 m 888 800 l 1088 800 l 1088 198 l 888 198 l 888 800 m 286 198 l 888 198 l 888 0 l 286 0 l 286 198 z "},"P":{"ha":1173,"x_min":85,"x_max":1088,"o":"m 85 1001 l 888 1001 l 888 800 l 286 800 l 286 600 l 888 600 l 888 399 l 286 399 l 286 0 l 85 0 l 85 1001 m 888 800 l 1088 800 l 1088 600 l 888 600 l 888 800 z "},"Q":{"ha":1173,"x_min":85,"x_max":1088,"o":"m 286 1001 l 888 1001 l 888 800 l 286 800 l 286 1001 m 85 800 l 286 800 l 286 198 l 85 198 l 85 800 m 888 800 l 1088 800 l 1088 399 l 888 399 l 888 800 m 687 399 l 888 399 l 888 198 l 687 198 l 687 399 m 286 198 l 687 198 l 687 0 l 286 0 l 286 198 m 888 198 l 1088 198 l 1088 0 l 888 0 l 888 198 z "},"R":{"ha":1173,"x_min":85,"x_max":1088,"o":"m 85 1001 l 888 1001 l 888 800 l 286 800 l 286 600 l 888 600 l 888 399 l 286 399 l 286 0 l 85 0 l 85 1001 m 888 800 l 1088 800 l 1088 600 l 888 600 l 888 800 m 888 399 l 1088 399 l 1088 0 l 888 0 l 888 399 z "},"S":{"ha":1173,"x_min":85,"x_max":1088,"o":"m 286 1001 l 1088 1001 l 1088 800 l 286 800 l 286 1001 m 85 800 l 286 800 l 286 600 l 85 600 l 85 800 m 286 600 l 888 600 l 888 399 l 286 399 l 286 600 m 888 399 l 1088 399 l 1088 198 l 888 198 l 888 399 m 85 198 l 888 198 l 888 0 l 85 0 l 85 198 z "},"T":{"ha":1173,"x_min":85,"x_max":1088,"o":"m 85 1001 l 1088 1001 l 1088 800 l 687 800 l 687 0 l 486 0 l 486 800 l 85 800 l 85 1001 z "},"U":{"ha":1173,"x_min":85,"x_max":1088,"o":"m 85 1001 l 286 1001 l 286 198 l 85 198 l 85 1001 m 888 1001 l 1088 1001 l 1088 198 l 888 198 l 888 1001 m 286 198 l 888 198 l 888 0 l 286 0 l 286 198 z "},"V":{"ha":1173,"x_min":85,"x_max":1088,"o":"m 85 1001 l 286 1001 l 286 399 l 85 399 l 85 1001 m 888 1001 l 1088 1001 l 1088 399 l 888 399 l 888 1001 m 286 399 l 486 399 l 486 198 l 286 198 l 286 399 m 687 399 l 888 399 l 888 198 l 687 198 l 687 399 m 486 198 l 687 198 l 687 0 l 486 0 l 486 198 z "},"W":{"ha":1173,"x_min":85,"x_max":1088,"o":"m 85 1001 l 286 1001 l 286 399 l 486 399 l 486 198 l 286 198 l 286 0 l 85 0 l 85 1001 m 888 1001 l 1088 1001 l 1088 0 l 888 0 l 888 198 l 687 198 l 687 399 l 888 399 l 888 1001 m 486 600 l 687 600 l 687 399 l 486 399 l 486 600 z "},"X":{"ha":1173,"x_min":85,"x_max":1088,"o":"m 85 1001 l 286 1001 l 286 800 l 85 800 l 85 1001 m 888 1001 l 1088 1001 l 1088 800 l 888 800 l 888 1001 m 286 800 l 486 800 l 486 600 l 286 600 l 286 800 m 687 800 l 888 800 l 888 600 l 687 600 l 687 800 m 486 600 l 687 600 l 687 399 l 486 399 l 486 600 m 286 399 l 486 399 l 486 198 l 286 198 l 286 399 m 687 399 l 888 399 l 888 198 l 687 198 l 687 399 m 85 198 l 286 198 l 286 0 l 85 0 l 85 198 m 888 198 l 1088 198 l 1088 0 l 888 0 l 888 198 z "},"Y":{"ha":1173,"x_min":85,"x_max":1088,"o":"m 85 1001 l 286 1001 l 286 800 l 85 800 l 85 1001 m 888 1001 l 1088 1001 l 1088 800 l 888 800 l 888 1001 m 286 800 l 486 800 l 486 600 l 286 600 l 286 800 m 687 800 l 888 800 l 888 600 l 687 600 l 687 800 m 486 600 l 687 600 l 687 0 l 486 0 l 486 600 z "},"Z":{"ha":1173,"x_min":85,"x_max":1088,"o":"m 85 1001 l 1088 1001 l 1088 800 l 888 800 l 888 600 l 687 600 l 687 800 l 85 800 l 85 1001 m 486 600 l 687 600 l 687 399 l 486 399 l 486 600 m 286 399 l 486 399 l 486 198 l 1088 198 l 1088 0 l 85 0 l 85 198 l 286 198 l 286 399 z "},"[":{"ha":571,"x_min":85,"x_max":486,"o":"m 85 1001 l 486 1001 l 486 800 l 286 800 l 286 198 l 486 198 l 486 0 l 85 0 l 85 1001 z "},"\\":{"ha":1173,"x_min":85,"x_max":1088,"o":"m 85 1001 l 286 1001 l 286 800 l 85 800 l 85 1001 m 286 800 l 486 800 l 486 600 l 286 600 l 286 800 m 486 600 l 687 600 l 687 399 l 486 399 l 486 600 m 687 399 l 888 399 l 888 198 l 687 198 l 687 399 m 888 198 l 1088 198 l 1088 0 l 888 0 l 888 198 z "},"]":{"ha":571,"x_min":85,"x_max":486,"o":"m 85 1001 l 486 1001 l 486 0 l 85 0 l 85 198 l 286 198 l 286 800 l 85 800 l 85 1001 z "},"_":{"ha":1173,"x_min":85,"x_max":1088,"o":"m 85 198 l 1088 198 l 1088 0 l 85 0 l 85 198 z "},"a":{"ha":1173,"x_min":85,"x_max":1088,"o":"m 286 1001 l 888 1001 l 888 800 l 286 800 l 286 1001 m 85 800 l 286 800 l 286 600 l 888 600 l 888 800 l 1088 800 l 1088 0 l 888 0 l 888 399 l 286 399 l 286 0 l 85 0 l 85 800 z "},"b":{"ha":1173,"x_min":85,"x_max":1088,"o":"m 85 1001 l 888 1001 l 888 800 l 286 800 l 286 600 l 888 600 l 888 399 l 286 399 l 286 198 l 888 198 l 888 0 l 85 0 l 85 1001 m 888 800 l 1088 800 l 1088 600 l 888 600 l 888 800 m 888 399 l 1088 399 l 1088 198 l 888 198 l 888 399 z "},"c":{"ha":1173,"x_min":85,"x_max":1088,"o":"m 286 1001 l 888 1001 l 888 800 l 286 800 l 286 1001 m 85 800 l 286 800 l 286 198 l 85 198 l 85 800 m 888 800 l 1088 800 l 1088 600 l 888 600 l 888 800 m 888 399 l 1088 399 l 1088 198 l 888 198 l 888 399 m 286 198 l 888 198 l 888 0 l 286 0 l 286 198 z "},"d":{"ha":1173,"x_min":85,"x_max":1088,"o":"m 85 1001 l 888 1001 l 888 800 l 286 800 l 286 198 l 888 198 l 888 0 l 85 0 l 85 1001 m 888 800 l 1088 800 l 1088 198 l 888 198 l 888 800 z "},"e":{"ha":1173,"x_min":85,"x_max":1088,"o":"m 85 1001 l 1088 1001 l 1088 800 l 286 800 l 286 600 l 888 600 l 888 399 l 286 399 l 286 198 l 1088 198 l 1088 0 l 85 0 l 85 1001 z "},"f":{"ha":1173,"x_min":85,"x_max":1088,"o":"m 85 1001 l 1088 1001 l 1088 800 l 286 800 l 286 600 l 888 600 l 888 399 l 286 399 l 286 0 l 85 0 l 85 1001 z "},"g":{"ha":1173,"x_min":85,"x_max":1088,"o":"m 286 1001 l 1088 1001 l 1088 800 l 286 800 l 286 1001 m 85 800 l 286 800 l 286 198 l 85 198 l 85 800 m 486 600 l 1088 600 l 1088 198 l 888 198 l 888 399 l 486 399 l 486 600 m 286 198 l 888 198 l 888 0 l 286 0 l 286 198 z "},"h":{"ha":1173,"x_min":85,"x_max":1088,"o":"m 85 1001 l 286 1001 l 286 600 l 888 600 l 888 1001 l 1088 1001 l 1088 0 l 888 0 l 888 399 l 286 399 l 286 0 l 85 0 l 85 1001 z "},"i":{"ha":1173,"x_min":85,"x_max":1088,"o":"m 85 1001 l 1088 1001 l 1088 800 l 687 800 l 687 198 l 1088 198 l 1088 0 l 85 0 l 85 198 l 486 198 l 486 800 l 85 800 l 85 1001 z "},"j":{"ha":1173,"x_min":85,"x_max":1088,"o":"m 687 1001 l 1088 1001 l 1088 198 l 888 198 l 888 800 l 687 800 l 687 1001 m 85 600 l 286 600 l 286 198 l 85 198 l 85 600 m 286 198 l 888 198 l 888 0 l 286 0 l 286 198 z "},"k":{"ha":1173,"x_min":85,"x_max":1088,"o":"m 85 1001 l 286 1001 l 286 600 l 687 600 l 687 399 l 286 399 l 286 0 l 85 0 l 85 1001 m 888 1001 l 1088 1001 l 1088 800 l 888 800 l 888 1001 m 687 800 l 888 800 l 888 600 l 687 600 l 687 800 m 687 399 l 888 399 l 888 198 l 687 198 l 687 399 m 888 198 l 1088 198 l 1088 0 l 888 0 l 888 198 z "},"l":{"ha":1173,"x_min":85,"x_max":1088,"o":"m 85 1001 l 286 1001 l 286 198 l 1088 198 l 1088 0 l 85 0 l 85 1001 z "},"m":{"ha":1173,"x_min":85,"x_max":1088,"o":"m 85 1001 l 286 1001 l 286 800 l 486 800 l 486 600 l 286 600 l 286 0 l 85 0 l 85 1001 m 888 1001 l 1088 1001 l 1088 0 l 888 0 l 888 600 l 687 600 l 687 800 l 888 800 l 888 1001 m 486 600 l 687 600 l 687 399 l 486 399 l 486 600 z "},"n":{"ha":1173,"x_min":85,"x_max":1088,"o":"m 85 1001 l 286 1001 l 286 800 l 486 800 l 486 600 l 286 600 l 286 0 l 85 0 l 85 1001 m 888 1001 l 1088 1001 l 1088 0 l 888 0 l 888 198 l 687 198 l 687 399 l 888 399 l 888 1001 m 486 600 l 687 600 l 687 399 l 486 399 l 486 600 z "},"o":{"ha":1173,"x_min":85,"x_max":1088,"o":"m 286 1001 l 888 1001 l 888 800 l 286 800 l 286 1001 m 85 800 l 286 800 l 286 198 l 85 198 l 85 800 m 888 800 l 1088 800 l 1088 198 l 888 198 l 888 800 m 286 198 l 888 198 l 888 0 l 286 0 l 286 198 z "},"p":{"ha":1173,"x_min":85,"x_max":1088,"o":"m 85 1001 l 888 1001 l 888 800 l 286 800 l 286 600 l 888 600 l 888 399 l 286 399 l 286 0 l 85 0 l 85 1001 m 888 800 l 1088 800 l 1088 600 l 888 600 l 888 800 z "},"q":{"ha":1173,"x_min":85,"x_max":1088,"o":"m 286 1001 l 888 1001 l 888 800 l 286 800 l 286 1001 m 85 800 l 286 800 l 286 198 l 85 198 l 85 800 m 888 800 l 1088 800 l 1088 399 l 888 399 l 888 800 m 687 399 l 888 399 l 888 198 l 687 198 l 687 399 m 286 198 l 687 198 l 687 0 l 286 0 l 286 198 m 888 198 l 1088 198 l 1088 0 l 888 0 l 888 198 z "},"r":{"ha":1173,"x_min":85,"x_max":1088,"o":"m 85 1001 l 888 1001 l 888 800 l 286 800 l 286 600 l 888 600 l 888 399 l 286 399 l 286 0 l 85 0 l 85 1001 m 888 800 l 1088 800 l 1088 600 l 888 600 l 888 800 m 888 399 l 1088 399 l 1088 0 l 888 0 l 888 399 z "},"s":{"ha":1173,"x_min":85,"x_max":1088,"o":"m 286 1001 l 1088 1001 l 1088 800 l 286 800 l 286 1001 m 85 800 l 286 800 l 286 600 l 85 600 l 85 800 m 286 600 l 888 600 l 888 399 l 286 399 l 286 600 m 888 399 l 1088 399 l 1088 198 l 888 198 l 888 399 m 85 198 l 888 198 l 888 0 l 85 0 l 85 198 z "},"t":{"ha":1173,"x_min":85,"x_max":1088,"o":"m 85 1001 l 1088 1001 l 1088 800 l 687 800 l 687 0 l 486 0 l 486 800 l 85 800 l 85 1001 z "},"u":{"ha":1173,"x_min":85,"x_max":1088,"o":"m 85 1001 l 286 1001 l 286 198 l 85 198 l 85 1001 m 888 1001 l 1088 1001 l 1088 198 l 888 198 l 888 1001 m 286 198 l 888 198 l 888 0 l 286 0 l 286 198 z "},"v":{"ha":1173,"x_min":85,"x_max":1088,"o":"m 85 1001 l 286 1001 l 286 399 l 85 399 l 85 1001 m 888 1001 l 1088 1001 l 1088 399 l 888 399 l 888 1001 m 286 399 l 486 399 l 486 198 l 286 198 l 286 399 m 687 399 l 888 399 l 888 198 l 687 198 l 687 399 m 486 198 l 687 198 l 687 0 l 486 0 l 486 198 z "},"w":{"ha":1173,"x_min":85,"x_max":1088,"o":"m 85 1001 l 286 1001 l 286 399 l 486 399 l 486 198 l 286 198 l 286 0 l 85 0 l 85 1001 m 888 1001 l 1088 1001 l 1088 0 l 888 0 l 888 198 l 687 198 l 687 399 l 888 399 l 888 1001 m 486 600 l 687 600 l 687 399 l 486 399 l 486 600 z "},"x":{"ha":1173,"x_min":85,"x_max":1088,"o":"m 85 1001 l 286 1001 l 286 800 l 85 800 l 85 1001 m 888 1001 l 1088 1001 l 1088 800 l 888 800 l 888 1001 m 286 800 l 486 800 l 486 600 l 286 600 l 286 800 m 687 800 l 888 800 l 888 600 l 687 600 l 687 800 m 486 600 l 687 600 l 687 399 l 486 399 l 486 600 m 286 399 l 486 399 l 486 198 l 286 198 l 286 399 m 687 399 l 888 399 l 888 198 l 687 198 l 687 399 m 85 198 l 286 198 l 286 0 l 85 0 l 85 198 m 888 198 l 1088 198 l 1088 0 l 888 0 l 888 198 z "},"y":{"ha":1173,"x_min":85,"x_max":1088,"o":"m 85 1001 l 286 1001 l 286 800 l 85 800 l 85 1001 m 888 1001 l 1088 1001 l 1088 800 l 888 800 l 888 1001 m 286 800 l 486 800 l 486 600 l 286 600 l 286 800 m 687 800 l 888 800 l 888 600 l 687 600 l 687 800 m 486 600 l 687 600 l 687 0 l 486 0 l 486 600 z "},"z":{"ha":1173,"x_min":85,"x_max":1088,"o":"m 85 1001 l 1088 1001 l 1088 800 l 888 800 l 888 600 l 687 600 l 687 800 l 85 800 l 85 1001 m 486 600 l 687 600 l 687 399 l 486 399 l 486 600 m 286 399 l 486 399 l 486 198 l 1088 198 l 1088 0 l 85 0 l 85 198 l 286 198 l 286 399 z "},"{":{"ha":772,"x_min":85,"x_max":687,"o":"m 286 1001 l 687 1001 l 687 800 l 486 800 l 486 198 l 687 198 l 687 0 l 286 0 l 286 399 l 85 399 l 85 600 l 286 600 l 286 1001 z "},"|":{"ha":370,"x_min":85,"x_max":286,"o":"m 85 1001 l 286 1001 l 286 0 l 85 0 l 85 1001 z "},"}":{"ha":772,"x_min":85,"x_max":687,"o":"m 85 1001 l 486 1001 l 486 600 l 687 600 l 687 399 l 486 399 l 486 0 l 85 0 l 85 198 l 286 198 l 286 800 l 85 800 l 85 1001 z "}}}
